<?xml version="1.0" standalone="no"?><!DOCTYPE svg PUBLIC "-//W3C//DTD SVG 1.1//EN" "http://www.w3.org/Graphics/SVG/1.1/DTD/svg11.dtd"><svg t="1563173215201" class="icon" viewBox="0 0 1031 1024" version="1.1" xmlns="http://www.w3.org/2000/svg" p-id="12524" xmlns:xlink="http://www.w3.org/1999/xlink" width="32.21875" height="32"><defs><style type="text/css"></style></defs><path d="M736.485666 327.878583l-142.462057 162.536257c-6.475548 6.259696-11.655987 10.576728-17.268128 17.268128l-57.632378 63.244519c-8.849916 10.576728-5.612142 9.49747-14.462057 20.074199-21.153457 25.254637-36.694772 28.27656-56.121417 64.755481h563.804384c29.571669-61.517707 24.391231-251.251265-15.325463-335.649241-35.615514-75.548061-50.940978-107.494098-115.480607-172.033727-22.88027-22.88027-34.104553-34.104553-61.301855-53.747049C703.244519 9.281619 621.868465 0.647555 506.387858 0h-63.460371c2.158516 27.197302-3.237774 8.634064 10.79258 23.743676 0.863406 0.863406 2.158516 1.942664 3.021923 2.806071s2.158516 1.942664 3.021922 2.806071 1.942664 2.158516 2.806071 3.021922c4.748735 5.180438 5.39629 6.6914 10.79258 12.303542l115.264756 120.661045c15.325464 15.541315 18.347386 24.607083 34.320404 40.36425l55.042159 60.006745c6.259696 8.202361 12.08769 12.951096 19.642496 20.505902 14.677909 14.462057 27.844857 25.470489 38.853288 41.659359z" p-id="12525"></path><path d="M0.215852 483.291737c0 96.053963 6.043845 175.271501 52.883642 257.726813 26.118044 45.976391 69.935919 116.344013 111.595278 147.210792 122.60371 90.657673 169.659359 135.770658 376.229343 135.770658-4.964587-18.779089-9.281619-17.699831-31.298483-43.602024-6.475548-7.554806-5.612142-5.612142-8.634064-8.634064l-8.418212-8.849915c-8.418212-9.49747-10.576728-12.303541-19.426644-20.937606l-111.163575-118.934232c-0.863406-0.863406-1.942664-2.158516-2.59022-3.021923-25.038786-29.787521-82.023609-84.82968-100.370995-112.458685 39.500843-26.549747 104.256324-118.934233 145.268129-159.730185l34.536256-40.148398c20.721754-24.822934 105.551433-101.01855 107.709949-128H17.268128c-10.145025 20.937605-17.268128 71.015177-17.268128 103.608769z" p-id="12526"></path><path d="M667.629005 1000.903879c21.801012 0 77.490725-26.765599 96.053963-36.26307l112.674536-83.102866c11.871838-11.871838 24.391231-22.448567 34.104553-34.96796 9.713322-12.303541 17.268128-24.175379 26.765599-36.478921 11.440135-15.109612 22.016863-22.016863 23.959528-45.112984H449.187184c4.964587 18.347386 130.590219 150.88027 159.730185 179.804384 8.202361 8.202361 53.099494 56.121417 58.927488 56.121417zM57.848229 276.074199h488.903879c-2.158516-18.994941 1.079258-11.871838-21.58516-36.047218l-57.416526-57.632377c-42.091062-50.077572-48.134907-49.645868-83.53457-89.146712-10.145025-11.440135-42.954469-59.143339-55.905565-59.143339-35.615514 0-137.065767 71.662732-159.730186 93.247892-11.871838 11.224283-19.858347 19.858347-31.514334 31.730186-20.074199 20.290051-72.957841 90.657673-79.001686 116.559865z" p-id="12527"></path></svg>