<?xml version="1.0" standalone="no"?><!DOCTYPE svg PUBLIC "-//W3C//DTD SVG 1.1//EN" "http://www.w3.org/Graphics/SVG/1.1/DTD/svg11.dtd"><svg t="1563173671156" class="icon" viewBox="0 0 1024 1024" version="1.1" xmlns="http://www.w3.org/2000/svg" p-id="22170" xmlns:xlink="http://www.w3.org/1999/xlink" width="32" height="32"><defs><style type="text/css"></style></defs><path d="M320 832v-64H128V128h768v640h-192v64h188.8a67.2 67.2 0 0 0 67.2-67.2V131.2A67.2 67.2 0 0 0 892.8 64H131.2A67.2 67.2 0 0 0 64 131.2v633.6A67.2 67.2 0 0 0 131.2 832z" fill="" p-id="22171"></path><path d="M330.976 591.52L480 442.496V960h64V442.496l149.024 149.024 45.248-45.248L512 320l-226.272 226.272 45.248 45.248z" fill="" p-id="22172"></path></svg>