<?xml version="1.0" standalone="no"?><!DOCTYPE svg PUBLIC "-//W3C//DTD SVG 1.1//EN" "http://www.w3.org/Graphics/SVG/1.1/DTD/svg11.dtd"><svg t="1563960257410" class="icon" viewBox="0 0 1024 1024" version="1.1" xmlns="http://www.w3.org/2000/svg" p-id="15344" xmlns:xlink="http://www.w3.org/1999/xlink" width="32" height="32"><defs><style type="text/css"></style></defs><path d="M852.153 163.004H736.204c-0.681-46.657-38.378-84.514-84.987-85.398-4.558-43.546-41.485-77.6-86.219-77.6H458.999c-44.732 0-81.66 34.054-86.218 77.6-46.605 0.888-84.307 38.744-84.987 85.398H171.846c-46.965 0-85.038 38.073-85.038 85.039v690.912c0 46.966 38.073 85.039 85.038 85.039h680.307c46.964 0 85.038-38.073 85.038-85.039V248.043c0-46.966-38.074-85.039-85.038-85.039z m-504.392 59.999v-58.721c0-0.429 0.012-0.854 0.032-1.278 0.669-14.127 12.371-25.415 26.661-25.415h27.854c16.567 0 29.999-13.431 29.999-30v-20.89c0-14.719 11.975-26.693 26.692-26.693h105.999c14.719 0 26.693 11.975 26.693 26.693v20.891c0 16.568 13.432 30 30 30h27.854c14.29 0 25.99 11.288 26.66 25.415 0.02 0.424 0.032 0.849 0.032 1.278V233.311c0 14.718-11.974 26.692-26.692 26.692H374.454c-14.719 0-26.693-11.974-26.693-26.692v-10.308z m529.43 715.952c0 13.806-11.231 25.039-25.038 25.039H171.846c-13.807 0-25.039-11.233-25.039-25.039V248.043c0-13.807 11.232-25.04 25.039-25.04h115.916v10.307c0 47.803 38.89 86.691 86.692 86.691h275.091c47.803 0 86.691-38.889 86.691-86.691v-10.307h115.917c13.807 0 25.038 11.233 25.038 25.04v690.912z" p-id="15345"></path><path d="M287.354 566.591h99.212V821.71h-99.212zM462.394 453.206h99.211V821.71h-99.211zM637.434 651.631h99.212V821.71h-99.212z" p-id="15346"></path></svg>