<?xml version="1.0" standalone="no"?><!DOCTYPE svg PUBLIC "-//W3C//DTD SVG 1.1//EN" "http://www.w3.org/Graphics/SVG/1.1/DTD/svg11.dtd"><svg t="1563173422165" class="icon" viewBox="0 0 1024 1024" version="1.1" xmlns="http://www.w3.org/2000/svg" p-id="17789" xmlns:xlink="http://www.w3.org/1999/xlink" width="32" height="32"><defs><style type="text/css"></style></defs><path d="M118.857143 503.085714c1.142857-49.942857 11.428571-98.4 30.742857-144 19.771429-46.857143 48.114286-88.8 84.228571-125.028571S312 169.485714 358.857143 149.714286c48.457143-20.457143 99.885714-30.857143 153.028571-30.857143s104.571429 10.4 152.914286 30.857143A390.285714 390.285714 0 0 1 789.714286 234.057143c11.314286 11.314286 21.942857 23.314286 31.771428 35.885714l-68.8 53.714286a9.142857 9.142857 0 0 0 3.428572 16.114286l200.8 49.142857c5.714286 1.371429 11.314286-2.971429 11.314285-8.8l0.914286-206.742857c0-7.657143-8.8-12-14.742857-7.2l-64.457143 50.4C802.057143 104.114286 665.371429 32 511.771429 32 249.942857 32 36.914286 241.828571 32 502.628571a9.142857 9.142857 0 0 0 9.142857 9.371429h68.571429c5.028571 0 9.028571-4 9.142857-8.914286z m864 8.914286h-68.571429c-5.028571 0-9.028571 4-9.142857 8.914286-1.142857 49.942857-11.428571 98.4-30.742857 144-19.771429 46.857143-48.114286 88.914286-84.228571 125.028571A391.371429 391.371429 0 0 1 512.114286 905.142857a391.131429 391.131429 0 0 1-277.942857-115.2c-11.314286-11.314286-21.942857-23.314286-31.771429-35.885714l68.8-53.714286a9.142857 9.142857 0 0 0-3.428571-16.114286l-200.8-49.142857c-5.714286-1.371429-11.314286 2.971429-11.314286 8.8l-0.8 206.857143c0 7.657143 8.8 12 14.742857 7.2l64.457143-50.4C221.942857 919.885714 358.628571 992 512.228571 992c261.942857 0 474.857143-209.942857 479.771429-470.628571a9.142857 9.142857 0 0 0-9.142857-9.371429z" p-id="17790"></path></svg>