<?xml version="1.0" standalone="no"?><!DOCTYPE svg PUBLIC "-//W3C//DTD SVG 1.1//EN" "http://www.w3.org/Graphics/SVG/1.1/DTD/svg11.dtd"><svg t="1563173486519" class="icon" viewBox="0 0 1024 1024" version="1.1" xmlns="http://www.w3.org/2000/svg" p-id="18793" xmlns:xlink="http://www.w3.org/1999/xlink" width="32" height="32"><defs><style type="text/css"></style></defs><path d="M393.142857 283.428571h54.857143c5.028571 0 9.142857-4.114286 9.142857-9.142857v-54.857143c0-5.028571-4.114286-9.142857-9.142857-9.142857h-54.857143c-5.028571 0-9.142857 4.114286-9.142857 9.142857v54.857143c0 5.028571 4.114286 9.142857 9.142857 9.142857z m402.285714 137.142858V91.428571c0-20.228571-16.342857-36.571429-36.571428-36.571428H265.142857c-20.228571 0-36.571429 16.342857-36.571428 36.571428v329.142858c-75.657143 0-137.142857 59.542857-137.142858 132.571428v406.857143c0 5.028571 4.114286 9.142857 9.142858 9.142857h822.857142c5.028571 0 9.142857-4.114286 9.142858-9.142857V553.142857c0-73.028571-61.485714-132.571429-137.142858-132.571428z m-82.285714 0H310.857143V137.142857h402.285714v283.428572zM576 283.428571h54.857143c5.028571 0 9.142857-4.114286 9.142857-9.142857v-54.857143c0-5.028571-4.114286-9.142857-9.142857-9.142857h-54.857143c-5.028571 0-9.142857 4.114286-9.142857 9.142857v54.857143c0 5.028571 4.114286 9.142857 9.142857 9.142857z" p-id="18794"></path></svg>